<?xml version="1.0" standalone="no"?>
<!DOCTYPE svg PUBLIC "-//W3C//DTD SVG 20010904//EN"
 "http://www.w3.org/TR/2001/REC-SVG-20010904/DTD/svg10.dtd">
<svg version="1.0" xmlns="http://www.w3.org/2000/svg"
 width="512.000000pt" height="512.000000pt" viewBox="0 0 512.000000 512.000000"
 preserveAspectRatio="xMidYMid meet">
<metadata>
Created by potrace 1.11, written by Peter Selinger 2001-2013
</metadata>
<g transform="translate(0.000000,512.000000) scale(0.100000,-0.100000)"
fill="#000000" stroke="none">
<path d="M0 2560 l0 -2560 2560 0 2560 0 0 2560 0 2560 -2560 0 -2560 0 0
-2560z m894 2391 c3 -5 117 -571 252 -1258 135 -686 248 -1255 251 -1263 7
-17 9 -5 293 1430 116 586 213 1073 216 1083 5 16 29 17 367 15 l362 -3 0
-2395 0 -2395 -270 0 -270 0 -4 1725 -3 1725 -88 -435 c-48 -239 -161 -807
-251 -1262 l-164 -828 -181 0 c-180 0 -182 0 -187 23 -3 12 -98 488 -211 1057
-113 569 -224 1132 -248 1250 l-43 215 -3 -1738 -2 -1737 -270 0 -270 0 0
2400 0 2400 359 0 c204 0 362 -4 365 -9z m4084 -463 l2 -468 -367 -2 -368 -3
-3 -1927 -2 -1928 -285 0 -285 0 0 1930 0 1930 -367 2 -368 3 -3 455 c-1 250
0 461 3 468 3 10 213 12 1022 10 l1018 -3 3 -467z"/>
</g>
</svg>
